<svg width="21" height="21" viewBox="0 0 21 21" fill="none" xmlns="http://www.w3.org/2000/svg">
<path d="M9.625 4.375V14.7525L5.81 11.5762C5.72152 11.5027 5.61942 11.4473 5.50954 11.4132C5.39965 11.3791 5.28413 11.367 5.16956 11.3776C4.93819 11.3989 4.72477 11.5113 4.57625 11.69C4.42773 11.8687 4.35627 12.0991 4.37761 12.3304C4.39894 12.5618 4.51131 12.7752 4.69 12.9237L9.94 17.2987C9.98176 17.3282 10.0256 17.3545 10.0712 17.3775C10.115 17.3775 10.1412 17.4212 10.185 17.4387C10.2853 17.4784 10.3921 17.4992 10.5 17.5C10.6079 17.4992 10.7147 17.4784 10.815 17.4387C10.8587 17.4387 10.885 17.395 10.9287 17.3775C10.9744 17.3545 11.0182 17.3282 11.06 17.2987L16.31 12.9237C16.4088 12.8415 16.4882 12.7385 16.5426 12.622C16.5971 12.5056 16.6252 12.3785 16.625 12.25C16.6254 12.0456 16.5542 11.8474 16.4237 11.69C16.3503 11.6014 16.2601 11.5282 16.1583 11.4745C16.0565 11.4208 15.9451 11.3877 15.8305 11.3772C15.7159 11.3666 15.6003 11.3787 15.4904 11.4129C15.3805 11.4471 15.2784 11.5026 15.19 11.5762L11.375 14.7525V4.375C11.375 4.14294 11.2828 3.92038 11.1187 3.75628C10.9546 3.59219 10.7321 3.5 10.5 3.5C10.2679 3.5 10.0454 3.59219 9.88128 3.75628C9.71719 3.92038 9.625 4.14294 9.625 4.375Z" fill="white"/>
</svg>
