<svg width="28" height="28" viewBox="0 0 28 28" fill="none" xmlns="http://www.w3.org/2000/svg">
<path d="M9.32012 4.08278C9.16748 4.23905 9.08203 4.44884 9.08203 4.66728C9.08203 4.88573 9.16748 5.09551 9.32012 5.25178L17.8479 14L9.32012 22.7465C9.16748 22.9028 9.08203 23.1126 9.08203 23.331C9.08203 23.5495 9.16748 23.7593 9.32012 23.9155C9.39432 23.9917 9.48302 24.0523 9.58101 24.0937C9.67899 24.135 9.78427 24.1563 9.89062 24.1563C9.99698 24.1563 10.1023 24.135 10.2002 24.0937C10.2982 24.0523 10.3869 23.9917 10.4611 23.9155L19.5296 14.6108C19.6889 14.4474 19.778 14.2282 19.778 14C19.778 13.7718 19.6889 13.5527 19.5296 13.3893L10.4611 4.08453C10.3869 4.00833 10.2982 3.94777 10.2002 3.90641C10.1023 3.86506 9.99698 3.84375 9.89062 3.84375C9.78427 3.84375 9.67899 3.86506 9.58101 3.90641C9.48302 3.94777 9.39432 4.00833 9.32012 4.08453V4.08278Z" fill="#AFAFAF"/>
</svg>
