<svg width="41" height="41" viewBox="0 0 41 41" fill="none" xmlns="http://www.w3.org/2000/svg">
<circle cx="20.5" cy="20.5" r="20.5" fill="#C2C2C2"/>
<path d="M17.2596 30.3114C16.6787 30.3114 16.1216 30.0807 15.7109 29.6699C15.3001 29.2592 15.0694 28.7021 15.0694 28.1212C15.0694 27.5404 15.3001 26.9833 15.7109 26.5725C16.1216 26.1618 16.6787 25.9311 17.2596 25.9311C17.8404 25.9311 18.3975 26.1618 18.8082 26.5725C19.219 26.9833 19.4497 27.5404 19.4497 28.1212C19.4497 28.7021 19.219 29.2592 18.8082 29.6699C18.3975 30.0807 17.8404 30.3114 17.2596 30.3114ZM24.9252 30.3114C24.3443 30.3114 23.7872 30.0807 23.3765 29.6699C22.9657 29.2592 22.735 28.7021 22.735 28.1212C22.735 27.5404 22.9657 26.9833 23.3765 26.5725C23.7872 26.1618 24.3443 25.9311 24.9252 25.9311C25.506 25.9311 26.0631 26.1618 26.4738 26.5725C26.8846 26.9833 27.1153 27.5404 27.1153 28.1212C27.1153 28.7021 26.8846 29.2592 26.4738 29.6699C26.0631 30.0807 25.506 30.3114 24.9252 30.3114ZM10.6474 14.8959C10.3741 14.8871 10.1148 14.7723 9.92457 14.5758C9.73431 14.3793 9.62793 14.1165 9.62793 13.843C9.62793 13.5694 9.73431 13.3067 9.92457 13.1102C10.1148 12.9137 10.3741 12.7989 10.6474 12.79H11.9079C12.8957 12.79 13.7498 13.4756 13.9645 14.4392L15.3366 20.6177C15.5512 21.5814 16.4054 22.2669 17.3932 22.2669H25.6194L27.1986 15.9483H16.965C16.6942 15.9359 16.4386 15.8196 16.2513 15.6236C16.064 15.4276 15.9595 15.167 15.9595 14.8959C15.9595 14.6248 16.064 14.3642 16.2513 14.1681C16.4386 13.9721 16.6942 13.8559 16.965 13.8435H27.1986C27.5187 13.8434 27.8346 13.9163 28.1224 14.0567C28.4101 14.197 28.662 14.4011 28.859 14.6534C29.056 14.9058 29.1929 15.1997 29.2593 15.5129C29.3257 15.826 29.3197 16.1502 29.242 16.4608L27.6629 22.7772C27.549 23.233 27.2861 23.6376 26.9158 23.9267C26.5455 24.2158 26.0892 24.3728 25.6194 24.3728H17.3932C16.4347 24.3729 15.5049 24.0461 14.7573 23.4464C14.0097 22.8467 13.489 22.01 13.2811 21.0744L11.9079 14.8959H10.6474Z" fill="white"/>
</svg>
