<svg width="83" height="83" viewBox="0 0 83 83" fill="none" xmlns="http://www.w3.org/2000/svg">
<path d="M44.9585 10.3747C58.446 10.3747 69.1668 21.0955 69.1668 34.583C69.1668 44.2663 63.6335 52.5663 55.3335 56.3705V72.6247H31.1252V62.2497H27.6668C23.8627 62.2497 20.7502 59.1372 20.7502 55.333V44.958H15.5627C14.1793 44.958 13.1418 43.2288 14.1793 42.1913L20.7502 33.5455C21.4418 20.4038 31.8168 10.3747 44.9585 10.3747ZM44.9585 3.45801C29.0502 3.45801 15.9085 15.2163 14.1793 30.7788L8.646 38.0413C6.571 40.808 6.571 44.2663 7.95433 47.033C9.33767 49.4538 11.4127 51.183 13.8335 51.5288V55.333C13.8335 61.9038 18.3293 67.0913 24.2085 68.8205V79.5413H62.2502V60.5205C70.896 54.6413 76.0835 45.3038 76.0835 34.583C76.0835 17.2913 62.2502 3.45801 44.9585 3.45801ZM48.4168 48.4163H41.5002V44.958H48.4168V48.4163ZM53.9502 32.8538C52.9127 34.2372 51.8752 35.6205 50.146 36.658V41.4997H39.771V36.658C34.9293 33.8913 33.2002 27.3205 35.9668 22.4788C38.7335 17.6372 45.3043 15.908 50.146 18.6747C54.9877 21.4413 56.7168 28.0122 53.9502 32.8538Z" fill="#AF2500"/>
</svg>
