<svg width="4" height="6" viewBox="0 0 4 6" fill="none" xmlns="http://www.w3.org/2000/svg">
<path d="M0.483003 0.439926C0.403913 0.519039 0.359483 0.626325 0.359483 0.738191C0.359483 0.850057 0.403913 0.957343 0.483003 1.03646L2.57128 3.12474L0.483003 5.21302C0.406155 5.29259 0.363632 5.39915 0.364593 5.50977C0.365554 5.62038 0.409922 5.72619 0.488141 5.80441C0.566361 5.88263 0.672172 5.927 0.782786 5.92796C0.893401 5.92892 0.999967 5.8864 1.07953 5.80955L3.46608 3.423C3.54517 3.34389 3.5896 3.2366 3.5896 3.12474C3.5896 3.01287 3.54517 2.90559 3.46608 2.82647L1.07953 0.439926C1.00042 0.360836 0.893134 0.316406 0.781268 0.316406C0.669402 0.316406 0.562116 0.360836 0.483003 0.439926V0.439926Z" fill="black"/>
</svg>
