<svg width="21" height="14" viewBox="0 0 21 14" fill="none" xmlns="http://www.w3.org/2000/svg">
<path d="M10.1283 4.19612C10.6756 4.19612 11.2175 4.32003 11.723 4.56079C12.2286 4.80154 12.688 5.15442 13.075 5.59928C13.4619 6.04413 13.7689 6.57225 13.9783 7.15349C14.1877 7.73472 14.2955 8.35768 14.2955 8.9868C14.2955 9.61593 14.1877 10.2389 13.9783 10.8201C13.7689 11.4014 13.4619 11.9295 13.075 12.3743C12.688 12.8192 12.2286 13.1721 11.723 13.4128C11.2175 13.6536 10.6756 13.7775 10.1283 13.7775C9.02313 13.7775 7.96319 13.2728 7.18169 12.3743C6.40019 11.4759 5.96115 10.2574 5.96115 8.9868C5.96115 7.71624 6.40019 6.49771 7.18169 5.59928C7.96319 4.70085 9.02313 4.19612 10.1283 4.19612ZM10.1283 5.9924C9.43753 5.9924 8.77502 6.30788 8.28654 6.86944C7.79807 7.431 7.52365 8.19264 7.52365 8.9868C7.52365 9.78097 7.79807 10.5426 8.28654 11.1042C8.77502 11.6657 9.43753 11.9812 10.1283 11.9812C10.8191 11.9812 11.4817 11.6657 11.9701 11.1042C12.4586 10.5426 12.733 9.78097 12.733 8.9868C12.733 8.19264 12.4586 7.431 11.9701 6.86944C11.4817 6.30788 10.8191 5.9924 10.1283 5.9924ZM10.1283 0C14.9346 0 19.0815 3.77219 20.233 9.05866C20.2606 9.17409 20.2677 9.29469 20.2542 9.41336C20.2406 9.53203 20.2065 9.64639 20.1539 9.7497C20.1013 9.85302 20.0313 9.94321 19.948 10.015C19.8647 10.0867 19.7697 10.1386 19.6687 10.1676C19.5677 10.1966 19.4626 10.2021 19.3598 10.1837C19.2569 10.1653 19.1582 10.1235 19.0696 10.0607C18.981 9.99789 18.9041 9.91534 18.8437 9.81791C18.7832 9.72048 18.7403 9.61013 18.7174 9.49336C18.2339 7.2952 17.1262 5.34535 15.5699 3.95273C14.0135 2.56011 12.0974 1.80434 10.1251 1.80516C8.15287 1.80599 6.23725 2.56336 4.68174 3.95728C3.12624 5.35121 2.0198 7.30198 1.53771 9.50054C1.48617 9.73011 1.35775 9.92693 1.18048 10.0481C1.00321 10.1692 0.791456 10.2049 0.591404 10.1473C0.391352 10.0897 0.219231 9.94346 0.11258 9.74054C0.00592796 9.53761 -0.0266021 9.29444 0.0220841 9.06405C0.587233 6.47463 1.88858 4.17643 3.71953 2.5343C5.55048 0.892164 7.80611 0.000198294 10.1283 0Z" fill="#B3B3B3"/>
</svg>
