<svg width="8" height="8" viewBox="0 0 8 8" fill="none" xmlns="http://www.w3.org/2000/svg">
<path d="M3.50283 1.06129C3.54064 0.984569 3.59917 0.919963 3.6718 0.874785C3.74443 0.829608 3.82825 0.805664 3.91378 0.805664C3.99932 0.805664 4.08314 0.829608 4.15577 0.874785C4.2284 0.919963 4.28693 0.984569 4.32474 1.06129L5.20894 2.85262L7.18673 3.14033C7.27135 3.15262 7.35084 3.18834 7.41621 3.24346C7.48158 3.29858 7.53022 3.37089 7.55663 3.45221C7.58304 3.53354 7.58617 3.62063 7.56565 3.70364C7.54513 3.78665 7.5018 3.86226 7.44054 3.92192L6.00931 5.31649L6.34742 7.28649C6.36186 7.37074 6.35243 7.45736 6.32022 7.53653C6.288 7.61571 6.23427 7.68429 6.16511 7.73453C6.09595 7.78477 6.01412 7.81466 5.92886 7.82081C5.8436 7.82697 5.75832 7.80915 5.68266 7.76937L3.91424 6.83935L2.14491 7.76937C2.06922 7.80906 1.98395 7.8268 1.89871 7.82056C1.81348 7.81433 1.73169 7.78438 1.66258 7.7341C1.59348 7.68382 1.53981 7.61522 1.50766 7.53604C1.4755 7.45686 1.46613 7.37026 1.48061 7.28603L1.81825 5.31649L0.387026 3.92192C0.325771 3.86226 0.282435 3.78665 0.261918 3.70364C0.241402 3.62063 0.244525 3.53354 0.270935 3.45221C0.297344 3.37089 0.345985 3.29858 0.411356 3.24346C0.476726 3.18834 0.556217 3.15262 0.640835 3.14033L2.61862 2.85308L3.50283 1.06083V1.06129Z" fill="#FFE903"/>
</svg>
