<svg width="41" height="41" viewBox="0 0 41 41" fill="none" xmlns="http://www.w3.org/2000/svg">
<path d="M20.4997 0.0834961C9.4318 0.0834961 0.0830078 9.43229 0.0830078 20.5002C0.0830078 31.568 9.4318 40.9168 20.4997 40.9168C31.5675 40.9168 40.9163 31.568 40.9163 20.5002C40.9163 9.43229 31.5675 0.0834961 20.4997 0.0834961ZM20.4997 10.2918C24.0256 10.2918 26.6247 12.8888 26.6247 16.4168C26.6247 19.9448 24.0256 22.5418 20.4997 22.5418C16.9758 22.5418 14.3747 19.9448 14.3747 16.4168C14.3747 12.8888 16.9758 10.2918 20.4997 10.2918ZM10.0749 30.243C11.9063 27.548 14.9606 25.7513 18.458 25.7513H22.5413C26.0408 25.7513 29.093 27.548 30.9244 30.243C28.3152 33.036 24.6136 34.7918 20.4997 34.7918C16.3857 34.7918 12.6842 33.036 10.0749 30.243Z" fill="#C2C2C2"/>
</svg>
