<svg width="74" height="70" viewBox="0 0 74 70" fill="none" xmlns="http://www.w3.org/2000/svg">
<path d="M66.3335 22.333H45.7562L49.8738 9.98734C50.6145 7.75801 50.2405 5.28667 48.8655 3.38001C47.4905 1.47334 45.2612 0.333008 42.9108 0.333008H37.0002C35.9112 0.333008 34.8808 0.817007 34.1805 1.65301L16.9472 22.333H7.66683C3.6225 22.333 0.333496 25.622 0.333496 29.6663V62.6663C0.333496 66.7107 3.6225 69.9997 7.66683 69.9997H56.4592C57.9511 69.9947 59.4064 69.5371 60.6326 68.6873C61.8589 67.8375 62.7984 66.6355 63.3268 65.2403L73.4358 38.2867C73.5893 37.875 73.6676 37.439 73.6668 36.9997V29.6663C73.6668 25.622 70.3778 22.333 66.3335 22.333ZM7.66683 29.6663H15.0002V62.6663H7.66683V29.6663ZM66.3335 36.336L56.4592 62.6663H22.3335V27.327L38.7162 7.66634H42.9182L37.1908 24.8373C37.0049 25.3885 36.953 25.976 37.0396 26.5512C37.1261 27.1264 37.3484 27.6727 37.6883 28.1448C38.0281 28.6169 38.4755 29.0012 38.9935 29.2658C39.5115 29.5304 40.0852 29.6677 40.6668 29.6663H66.3335V36.336Z" fill="#AF2500"/>
</svg>
