<svg width="80" height="64" viewBox="0 0 80 64" fill="none" xmlns="http://www.w3.org/2000/svg">
<path d="M0 56V24C0 21.8 0.784 19.916 2.352 18.348C3.91733 16.7827 5.8 16 8 16H20V8C20 5.8 20.784 3.91733 22.352 2.352C23.9173 0.783999 25.8 0 28 0H52C54.2 0 56.084 0.783999 57.652 2.352C59.2173 3.91733 60 5.8 60 8V16H72C74.2 16 76.084 16.7827 77.652 18.348C79.2173 19.916 80 21.8 80 24V56C80 58.2 79.2173 60.084 77.652 61.652C76.084 63.2173 74.2 64 72 64H8C5.8 64 3.91733 63.2173 2.352 61.652C0.784 60.084 0 58.2 0 56ZM8 56H72V44H64C64 45.1333 63.616 46.0827 62.848 46.848C62.0827 47.616 61.1333 48 60 48C58.8667 48 57.9173 47.616 57.152 46.848C56.384 46.0827 56 45.1333 56 44H24C24 45.1333 23.6173 46.0827 22.852 46.848C22.084 47.616 21.1333 48 20 48C18.8667 48 17.916 47.616 17.148 46.848C16.3827 46.0827 16 45.1333 16 44H8V56ZM8 24V36H16C16 34.8667 16.3827 33.916 17.148 33.148C17.916 32.3827 18.8667 32 20 32C21.1333 32 22.084 32.3827 22.852 33.148C23.6173 33.916 24 34.8667 24 36H56C56 34.8667 56.384 33.916 57.152 33.148C57.9173 32.3827 58.8667 32 60 32C61.1333 32 62.0827 32.3827 62.848 33.148C63.616 33.916 64 34.8667 64 36H72V24H8ZM28 16H52V8H28V16Z" fill="#AF2500"/>
</svg>
