<svg width="28" height="27" viewBox="0 0 28 27" fill="none" xmlns="http://www.w3.org/2000/svg">
<path d="M27.2004 6.06667C27.1854 5.49143 27.1409 4.91734 27.067 4.34667C26.9675 3.84683 26.8016 3.36254 26.5737 2.90667C26.3354 2.41214 26.0153 1.96137 25.627 1.57333C25.2351 1.18961 24.7852 0.870121 24.2937 0.626667C23.8372 0.403259 23.3529 0.241831 22.8537 0.146667C22.2884 0.0619992 21.7184 0.0130135 21.147 0H6.60036C6.02512 0.0149819 5.45103 0.0594847 4.88036 0.133333C4.38052 0.232891 3.89624 0.398804 3.44036 0.626667C2.94583 0.864982 2.49506 1.18503 2.10702 1.57333C1.7233 1.96521 1.40381 2.41519 1.16036 2.90667C0.93695 3.36315 0.775523 3.84743 0.680358 4.34667C0.595691 4.91191 0.546705 5.48193 0.533691 6.05333V20.6C0.548673 21.1752 0.593176 21.7493 0.667025 22.32C0.766583 22.8198 0.932496 23.3041 1.16036 23.76C1.39867 24.2545 1.71872 24.7053 2.10702 25.0933C2.49891 25.4771 2.94888 25.7965 3.44036 26.04C3.89684 26.2634 4.38113 26.4248 4.88036 26.52C5.4456 26.6047 6.01562 26.6537 6.58702 26.6667H21.1337C21.7089 26.6517 22.283 26.6072 22.8537 26.5333C23.3535 26.4338 23.8378 26.2679 24.2937 26.04C24.7882 25.8017 25.239 25.4816 25.627 25.0933C26.0108 24.7015 26.3302 24.2515 26.5737 23.76C26.7971 23.3035 26.9585 22.8192 27.0537 22.32C27.1384 21.7548 27.1873 21.1847 27.2004 20.6133V6.06667ZM14.1737 22.6667C12.5724 22.6588 10.9992 22.246 9.60036 21.4667L4.53369 22.8L5.86702 17.84C5.00718 16.3953 4.54701 14.7479 4.53369 13.0667C4.539 11.1772 5.10329 9.33162 6.1555 7.76228C7.20771 6.19293 8.70078 4.97004 10.4467 4.24762C12.1925 3.5252 14.1132 3.33556 15.9666 3.70258C17.8201 4.06961 19.5235 4.97688 20.8623 6.31014C22.2011 7.64339 23.1154 9.34301 23.4902 11.1949C23.8649 13.0468 23.6832 14.9682 22.9681 16.7171C22.2529 18.4659 21.0362 19.9641 19.4713 21.0228C17.9063 22.0815 16.0631 22.6535 14.1737 22.6667V22.6667ZM14.1737 5.16C12.7601 5.17618 11.376 5.56664 10.1624 6.29165C8.94882 7.01666 7.94899 8.0503 7.26475 9.28736C6.58051 10.5244 6.23629 11.9207 6.26714 13.334C6.29798 14.7474 6.7028 16.1273 7.44036 17.3333L7.62702 17.64L6.82702 20.56L9.86702 19.7333L10.1604 19.9067C11.3731 20.621 12.7529 21.0027 14.1604 21.0133C16.2821 21.0133 18.3169 20.1705 19.8172 18.6702C21.3175 17.1699 22.1604 15.1351 22.1604 13.0133C22.1604 10.8916 21.3175 8.85677 19.8172 7.35648C18.3169 5.85619 16.2821 5.01333 14.1604 5.01333L14.1737 5.16ZM18.8404 16.52C18.6657 16.8113 18.4319 17.0627 18.154 17.2579C17.8761 17.4531 17.5603 17.5878 17.227 17.6533C16.7291 17.7443 16.2164 17.7123 15.7337 17.56C15.2795 17.418 14.8342 17.2488 14.4004 17.0533C12.752 16.2262 11.3463 14.9859 10.3204 13.4533C9.76287 12.7433 9.42461 11.8861 9.34702 10.9867C9.33908 10.6131 9.40976 10.2419 9.55447 9.89739C9.69918 9.55285 9.91469 9.24257 10.187 8.98667C10.2672 8.89572 10.3657 8.82261 10.4759 8.77209C10.5861 8.72156 10.7058 8.69473 10.827 8.69333H11.2004C11.347 8.69333 11.547 8.69333 11.7337 9.10667C11.9204 9.52 12.4137 10.76 12.4804 10.88C12.5131 10.944 12.5302 11.0148 12.5302 11.0867C12.5302 11.1585 12.5131 11.2294 12.4804 11.2933C12.4214 11.4382 12.3405 11.5731 12.2404 11.6933C12.1204 11.84 11.987 12.0133 11.8804 12.12C11.7737 12.2267 11.6404 12.36 11.7737 12.6C12.1365 13.2123 12.5855 13.7691 13.107 14.2533C13.6749 14.7551 14.3242 15.1564 15.027 15.44C15.267 15.56 15.4137 15.5467 15.547 15.44C15.6804 15.3333 16.147 14.7467 16.307 14.5067C16.467 14.2667 16.627 14.3067 16.8404 14.3867C17.0537 14.4667 18.2404 15.04 18.4804 15.16C18.7204 15.28 18.867 15.3333 18.9337 15.44C18.9915 15.789 18.9594 16.1469 18.8404 16.48V16.52Z" fill="#28C215"/>
</svg>
