<svg width="17" height="14" viewBox="0 0 17 14" fill="none" xmlns="http://www.w3.org/2000/svg">
<path d="M0.709961 13.3164V9.67871C0.709961 8.62077 0.913411 7.53027 1.32031 6.40723C1.72721 5.28418 2.26432 4.22624 2.93164 3.2334C3.59896 2.22428 4.33138 1.36979 5.12891 0.669922L8.40039 2.57422C7.81445 3.55078 7.3099 4.60059 6.88672 5.72363C6.46354 6.84668 6.25195 8.16504 6.25195 9.67871V13.3164H0.709961ZM9.01074 13.3164V9.67871C9.01074 8.62077 9.21419 7.53027 9.62109 6.40723C10.028 5.28418 10.5651 4.22624 11.2324 3.2334C11.8997 2.22428 12.6322 1.36979 13.4297 0.669922L16.7012 2.57422C16.1152 3.55078 15.6107 4.60059 15.1875 5.72363C14.7643 6.84668 14.5527 8.16504 14.5527 9.67871V13.3164H9.01074Z" fill="#004492"/>
</svg>
